<?xml version="1.0" encoding="UTF-8" standalone="no"?>
<!-- Created with Inkscape (http://www.inkscape.org/) -->

<svg
   xmlns:dc="http://purl.org/dc/elements/1.1/"
   xmlns:cc="http://creativecommons.org/ns#"
   xmlns:rdf="http://www.w3.org/1999/02/22-rdf-syntax-ns#"
   xmlns:svg="http://www.w3.org/2000/svg"
   xmlns="http://www.w3.org/2000/svg"
   xmlns:sodipodi="http://sodipodi.sourceforge.net/DTD/sodipodi-0.dtd"
   xmlns:inkscape="http://www.inkscape.org/namespaces/inkscape"
   width="512"
   height="128"
   id="svg2"
   version="1.1"
   inkscape:version="0.48.3.1 r9886"
   sodipodi:docname="logo.svg">
  <defs
     id="defs4">
    <inkscape:perspective
       sodipodi:type="inkscape:persp3d"
       inkscape:vp_x="0 : 64 : 1"
       inkscape:vp_y="0 : 1000 : 0"
       inkscape:vp_z="512 : 64 : 1"
       inkscape:persp3d-origin="256 : 42.666667 : 1"
       id="perspective2985" />
  </defs>
  <sodipodi:namedview
     id="base"
     pagecolor="#ffffff"
     bordercolor="#666666"
     borderopacity="1.0"
     inkscape:pageopacity="0.0"
     inkscape:pageshadow="2"
     inkscape:zoom="0.98994949"
     inkscape:cx="223.85288"
     inkscape:cy="55.383763"
     inkscape:document-units="px"
     inkscape:current-layer="layer1"
     showgrid="false"
     showguides="true"
     inkscape:guide-bbox="true"
     inkscape:window-width="1079"
     inkscape:window-height="594"
     inkscape:window-x="272"
     inkscape:window-y="70"
     inkscape:window-maximized="0" />
  <metadata
     id="metadata7">
    <rdf:RDF>
      <cc:Work
         rdf:about="">
        <dc:format>image/svg+xml</dc:format>
        <dc:type
           rdf:resource="http://purl.org/dc/dcmitype/StillImage" />
        <dc:title></dc:title>
      </cc:Work>
    </rdf:RDF>
  </metadata>
  <g
     inkscape:label="Layer 1"
     inkscape:groupmode="layer"
     id="layer1"
     transform="translate(0,-924.36218)">
    <g
       style="font-size:50.42330551px;font-style:normal;font-weight:normal;line-height:125%;letter-spacing:0px;word-spacing:0px;fill:#000000;fill-opacity:1;stroke:none;font-family:Sans"
       id="text3776">
      <path
         d="m 189.26759,996.6493 c -3e-5,1.60856 -0.27906,3.06119 -0.83711,4.3579 -0.54168,1.2803 -1.34596,2.38 -2.41283,3.2992 -1.05051,0.9027 -2.3472,1.6003 -3.89008,2.0927 -1.5265,0.4924 -3.28278,0.7386 -5.26884,0.7386 -1.73988,0 -3.4223,-0.1805 -5.04726,-0.5416 -1.60856,-0.3611 -3.10222,-0.9028 -4.48098,-1.625 l 0,-7.09076 c 0.78787,0.37752 1.58394,0.74683 2.38822,1.10793 0.80427,0.3447 1.61675,0.65656 2.43745,0.93559 0.8371,0.27904 1.666,0.50064 2.4867,0.66474 0.83709,0.1642 1.66599,0.2462 2.4867,0.2462 0.83709,0 1.55109,-0.09 2.142,-0.2708 0.6073,-0.197 1.09151,-0.4596 1.45263,-0.78787 0.3775,-0.34468 0.64833,-0.74682 0.81248,-1.20641 0.18054,-0.476 0.27081,-0.99303 0.27083,-1.55111 -2e-5,-0.67296 -0.14774,-1.26385 -0.44318,-1.77269 -0.27905,-0.52524 -0.68118,-1.00944 -1.20641,-1.45263 -0.50885,-0.45957 -1.13257,-0.90275 -1.87118,-1.32952 -0.72222,-0.42675 -1.5347,-0.87813 -2.43745,-1.35414 -0.75505,-0.39392 -1.60036,-0.86992 -2.53594,-1.42801 -0.9356,-0.55805 -1.82194,-1.24743 -2.65904,-2.06814 -0.8207,-0.83708 -1.51008,-1.83833 -2.06815,-3.00373 -0.55807,-1.18177 -0.83711,-2.59336 -0.8371,-4.23477 -1e-5,-1.60853 0.26262,-3.04474 0.78786,-4.30863 0.54165,-1.28025 1.3049,-2.35536 2.28973,-3.22532 0.98483,-0.88631 2.17483,-1.55928 3.57001,-2.0189 1.41158,-0.45955 2.98731,-0.68935 4.72719,-0.68938 0.86991,3e-5 1.71523,0.0575 2.53593,0.17234 0.83709,0.11493 1.65778,0.27907 2.46208,0.49242 0.82067,0.21341 1.64136,0.47603 2.46207,0.78786 0.82067,0.3119 1.66599,0.673 2.53594,1.08331 l -2.46207,5.93361 c -0.73865,-0.34467 -1.42803,-0.64832 -2.06815,-0.91097 -0.64015,-0.26259 -1.26388,-0.48418 -1.87117,-0.66476 -0.60733,-0.18053 -1.20644,-0.31184 -1.79732,-0.39394 -0.5745,-0.0984 -1.15719,-0.14769 -1.74807,-0.14772 -1.28029,3e-5 -2.26512,0.34472 -2.95449,1.03407 -0.67298,0.673 -1.00946,1.57576 -1.00945,2.70828 -1e-5,0.60734 0.0985,1.149 0.29545,1.62497 0.21336,0.45962 0.54164,0.89458 0.98483,1.3049 0.45957,0.41037 1.04226,0.82893 1.74807,1.25566 0.72219,0.42678 1.59213,0.91099 2.6098,1.45263 1.23102,0.65657 2.36357,1.32954 3.39766,2.0189 1.03405,0.67299 1.9204,1.42802 2.65904,2.26511 0.75502,0.82071 1.33771,1.75629 1.74808,2.80677 0.41032,1.05049 0.61549,2.28153 0.61552,3.69311"
         style="font-variant:normal;font-weight:bold;font-stretch:normal;font-family:Droid Sans;-inkscape-font-specification:Droid Sans Bold"
         id="path3988" />
      <path
         d="m 211.2293,976.4849 c -1.46085,3e-5 -2.75754,0.28727 -3.89008,0.86173 -1.11615,0.5581 -2.05995,1.37058 -2.83138,2.43745 -0.75505,1.05051 -1.32954,2.339 -1.72346,3.86546 -0.39394,1.51009 -0.59091,3.20892 -0.5909,5.0965 -1e-5,1.92043 0.17234,3.62747 0.51704,5.12111 0.36109,1.49367 0.90275,2.75754 1.62497,3.7916 0.73861,1.01767 1.6742,1.79732 2.80677,2.33897 1.14895,0.52528 2.51129,0.78788 4.08704,0.78788 1.46081,0 2.92164,-0.1641 4.3825,-0.4924 1.47721,-0.3283 3.07756,-0.79609 4.80104,-1.40341 l 0,6.40141 c -0.78789,0.3283 -1.56755,0.6073 -2.33897,0.8371 -0.77148,0.2298 -1.55934,0.4185 -2.36359,0.5663 -0.8043,0.1477 -1.6332,0.2544 -2.4867,0.32 -0.83712,0.082 -1.73988,0.1231 -2.70828,0.1231 -2.77396,0 -5.17858,-0.4431 -7.21388,-1.3295 -2.03533,-0.8863 -3.71774,-2.1338 -5.04726,-3.7423 -1.32952,-1.6086 -2.31435,-3.54542 -2.95449,-5.81053 -0.64014,-2.2651 -0.96021,-4.78462 -0.96021,-7.55858 0,-2.72467 0.36931,-5.21957 1.10794,-7.4847 0.73862,-2.2815 1.82193,-4.24295 3.24994,-5.88437 1.42799,-1.64135 3.19248,-2.91342 5.29346,-3.81621 2.10096,-0.91914 4.51379,-1.37873 7.2385,-1.37876 1.78909,3e-5 3.57819,0.22983 5.36733,0.68938 1.80549,0.44321 3.52894,1.05872 5.17035,1.84655 l -2.46207,6.20443 c -1.34596,-0.64011 -2.7001,-1.19818 -4.06243,-1.67421 -1.36237,-0.47597 -2.70009,-0.71397 -4.01318,-0.714"
         style="font-variant:normal;font-weight:bold;font-stretch:normal;font-family:Droid Sans;-inkscape-font-specification:Droid Sans Bold"
         id="path3990" />
      <path
         d="m 248.77595,1006.6453 -20.73067,0 0,-35.99552 20.73067,0 0,6.25367 -13.09824,0 0,7.90327 12.18728,0 0,6.25367 -12.18728,0 0,9.28201 13.09824,0 0,6.3029"
         style="font-variant:normal;font-weight:bold;font-stretch:normal;font-family:Droid Sans;-inkscape-font-specification:Droid Sans Bold"
         id="path3992" />
      <path
         d="m 286.71654,1006.6453 -9.67596,0 -14.15693,-27.23053 -0.22159,0 c 0.0985,1.26389 0.18054,2.51955 0.24621,3.76698 0.0656,1.06692 0.11488,2.19126 0.14772,3.37304 0.0492,1.1654 0.0738,2.21588 0.0739,3.15146 l 0,16.93905 -6.81995,0 0,-35.99552 9.62672,0 14.13231,26.95973 0.14773,0 c -0.0493,-1.24744 -0.10672,-2.47848 -0.17235,-3.69312 -0.0164,-0.52522 -0.0411,-1.05867 -0.0739,-1.60034 -0.0164,-0.55806 -0.0329,-1.10792 -0.0492,-1.6496 -0.0164,-0.55805 -0.0329,-1.0915 -0.0492,-1.60034 -3e-5,-0.50881 -3e-5,-0.9684 0,-1.37877 l 0,-17.03756 6.84457,0 0,35.99552"
         style="font-variant:normal;font-weight:bold;font-stretch:normal;font-family:Droid Sans;-inkscape-font-specification:Droid Sans Bold"
         id="path3994" />
      <path
         d="m 316.53227,1006.6453 -20.73067,0 0,-35.99552 20.73067,0 0,6.25367 -13.09824,0 0,7.90327 12.18727,0 0,6.25367 -12.18727,0 0,9.28201 13.09824,0 0,6.3029"
         style="font-variant:normal;font-weight:bold;font-stretch:normal;font-family:Droid Sans;-inkscape-font-specification:Droid Sans Bold"
         id="path3996" />
      <path
         d="m 322.41662,1003.1246 c 0,-0.7715 0.10669,-1.4198 0.32007,-1.9451 0.22979,-0.5416 0.54166,-0.9766 0.93559,-1.30488 0.39393,-0.32827 0.85352,-0.56627 1.37876,-0.714 0.52524,-0.14772 1.09152,-0.22158 1.69884,-0.22159 0.57447,10e-6 1.11613,0.0739 1.62497,0.22159 0.52523,0.14773 0.98482,0.38573 1.37876,0.714 0.39392,0.32828 0.70578,0.76328 0.93559,1.30488 0.22978,0.5253 0.34468,1.1736 0.34469,1.9451 -10e-6,0.7386 -0.11491,1.3705 -0.34469,1.8958 -0.22981,0.5252 -0.54167,0.9602 -0.93559,1.3049 -0.39394,0.3446 -0.85353,0.5909 -1.37876,0.7386 -0.50884,0.1641 -1.0505,0.2462 -1.62497,0.2462 -0.60732,0 -1.1736,-0.082 -1.69884,-0.2462 -0.52524,-0.1477 -0.98483,-0.394 -1.37876,-0.7386 -0.39393,-0.3447 -0.7058,-0.7797 -0.93559,-1.3049 -0.21338,-0.5253 -0.32007,-1.1572 -0.32007,-1.8958"
         style="font-variant:normal;font-weight:bold;font-stretch:normal;font-family:Droid Sans;-inkscape-font-specification:Droid Sans Bold"
         id="path3998" />
    </g>
    <g
       transform="matrix(1.3413791,0,0,1.3413791,-0.81623485,894.99204)"
       style="font-size:40px;font-style:normal;font-weight:normal;line-height:125%;letter-spacing:0px;word-spacing:0px;fill:#888888;fill-opacity:1;stroke:none;font-family:Sans"
       id="flowRoot3780">
      <path
         d="m 259.8,55.213256 c 3.89332,2.8e-5 6.87998,0.746694 8.96,2.24 2.10664,1.466691 3.15998,3.666689 3.16,6.6 -2e-5,1.600018 -0.29336,2.97335 -0.88,4.12 -0.56002,1.120014 -1.38669,2.040013 -2.48,2.76 -1.06669,0.693345 -2.37335,1.200011 -3.92,1.52 -1.54668,0.320011 -3.29335,0.48001 -5.24,0.48 l -3.08,0 0,10.28 -3.88,0 0,-27.32 c 1.09333,-0.266639 2.30666,-0.439972 3.64,-0.52 1.35999,-0.106639 2.59999,-0.159972 3.72,-0.16 m 0.32,3.4 c -1.65334,2.5e-5 -2.92001,0.04002 -3.8,0.12 l 0,10.88 2.92,0 c 1.33332,1.4e-5 2.53332,-0.07999 3.6,-0.24 1.06665,-0.186653 1.95998,-0.479986 2.68,-0.88 0.74665,-0.426651 1.31998,-0.999984 1.72,-1.72 0.39998,-0.719983 0.59998,-1.639982 0.6,-2.76 -2e-5,-1.066646 -0.21335,-1.946645 -0.64,-2.64 -0.40002,-0.693311 -0.96002,-1.239977 -1.68,-1.64 -0.69335,-0.426643 -1.50668,-0.719976 -2.44,-0.88 -0.93335,-0.159975 -1.92001,-0.239975 -2.96,-0.24"
         style="font-variant:normal;font-stretch:normal;font-family:Ubuntu;-inkscape-font-specification:Ubuntu;fill:#888888;fill-opacity:1"
         id="path3977" />
      <path
         d="m 293.9975,72.813256 c -2e-5,1.653342 -0.24002,3.146674 -0.72,4.48 -0.48002,1.333338 -1.16002,2.480004 -2.04,3.44 -0.85335,0.960002 -1.88002,1.706668 -3.08,2.24 -1.20001,0.506666 -2.50668,0.76 -3.92,0.76 -1.41334,0 -2.72001,-0.253334 -3.92,-0.76 -1.20001,-0.533332 -2.24001,-1.279998 -3.12,-2.24 -0.85334,-0.959996 -1.52,-2.106662 -2,-3.44 -0.48,-1.333326 -0.72,-2.826658 -0.72,-4.48 0,-1.626655 0.24,-3.106653 0.72,-4.44 0.48,-1.359984 1.14666,-2.519983 2,-3.48 0.87999,-0.959981 1.91999,-1.693313 3.12,-2.2 1.19999,-0.533312 2.50666,-0.799979 3.92,-0.8 1.41332,2.1e-5 2.71999,0.266688 3.92,0.8 1.19998,0.506687 2.22665,1.240019 3.08,2.2 0.87998,0.960017 1.55998,2.120016 2.04,3.48 0.47998,1.333347 0.71998,2.813345 0.72,4.44 m -3.88,0 c -2e-5,-2.346654 -0.53335,-4.199985 -1.6,-5.56 -1.04002,-1.386649 -2.46668,-2.079982 -4.28,-2.08 -1.81334,1.8e-5 -3.25334,0.693351 -4.32,2.08 -1.04001,1.360015 -1.56001,3.213346 -1.56,5.56 -1e-5,2.346675 0.51999,4.21334 1.56,5.6 1.06666,1.360004 2.50666,2.040003 4.32,2.04 1.81332,3e-6 3.23998,-0.679996 4.28,-2.04 1.06665,-1.38666 1.59998,-3.253325 1.6,-5.6"
         style="font-variant:normal;font-stretch:normal;font-family:Ubuntu;-inkscape-font-specification:Ubuntu;fill:#888888;fill-opacity:1"
         id="path3979" />
      <path
         d="m 302.95125,83.213256 -3.72,0 0,-20.8 3.72,0 0,20.8 m -1.88,-24.56 c -0.66667,2.5e-5 -1.24,-0.213308 -1.72,-0.64 -0.45334,-0.453308 -0.68,-1.053307 -0.68,-1.8 0,-0.746639 0.22666,-1.333305 0.68,-1.76 0.48,-0.453304 1.05333,-0.67997 1.72,-0.68 0.66666,3e-5 1.22666,0.226696 1.68,0.68 0.47999,0.426695 0.71999,1.013361 0.72,1.76 -10e-6,0.746693 -0.24001,1.346692 -0.72,1.8 -0.45334,0.426692 -1.01334,0.640025 -1.68,0.64"
         style="font-variant:normal;font-stretch:normal;font-family:Ubuntu;-inkscape-font-specification:Ubuntu;fill:#888888;fill-opacity:1"
         id="path3981" />
      <path
         d="m 309.3875,63.013256 c 0.85333,-0.213313 1.98666,-0.439979 3.4,-0.68 1.41333,-0.239979 3.03999,-0.359979 4.88,-0.36 1.65332,2.1e-5 3.02665,0.240021 4.12,0.72 1.09332,0.453353 1.95998,1.106686 2.6,1.96 0.66665,0.826684 1.13331,1.826683 1.4,3 0.26665,1.173348 0.39998,2.46668 0.4,3.88 l 0,11.68 -3.72,0 0,-10.88 c -2e-5,-1.279988 -0.0933,-2.37332 -0.28,-3.28 -0.16002,-0.906652 -0.44002,-1.639984 -0.84,-2.2 -0.40001,-0.559983 -0.93335,-0.959983 -1.6,-1.2 -0.66668,-0.266649 -1.49335,-0.399982 -2.48,-0.4 -0.40001,1.8e-5 -0.81334,0.01335 -1.24,0.04 -0.42668,0.02669 -0.84001,0.06669 -1.24,0.12 -0.37334,0.02669 -0.72001,0.06668 -1.04,0.12 -0.29334,0.05335 -0.50667,0.09335 -0.64,0.12 l 0,17.56 -3.72,0 0,-20.2"
         style="font-variant:normal;font-stretch:normal;font-family:Ubuntu;-inkscape-font-specification:Ubuntu;fill:#888888;fill-opacity:1"
         id="path3983" />
      <path
         d="m 335.83625,62.413256 7.88,0 0,3.12 -7.88,0 0,9.6 c -1e-5,1.040007 0.08,1.906673 0.24,2.6 0.15999,0.666672 0.39999,1.200004 0.72,1.6 0.31999,0.373337 0.71999,0.640003 1.2,0.8 0.47999,0.160003 1.03999,0.240003 1.68,0.24 1.11999,3e-6 2.01332,-0.119997 2.68,-0.36 0.69332,-0.266663 1.17332,-0.45333 1.44,-0.56 l 0.72,3.08 c -0.37335,0.186667 -1.02668,0.413334 -1.96,0.68 -0.93335,0.293333 -2.00001,0.44 -3.2,0.44 -1.41334,0 -2.58667,-0.173334 -3.52,-0.52 -0.90667,-0.373333 -1.64001,-0.919999 -2.2,-1.64 -0.56,-0.719997 -0.96,-1.599997 -1.2,-2.64 -0.21334,-1.066661 -0.32,-2.293327 -0.32,-3.68 l 0,-18.56 3.72,-0.64 0,6.44"
         style="font-variant:normal;font-stretch:normal;font-family:Ubuntu;-inkscape-font-specification:Ubuntu;fill:#888888;fill-opacity:1"
         id="path3985" />
    </g>
    <g
       id="g3886"
       transform="matrix(0.4425102,0,0,0.4425102,86.765672,522.53649)">
      <path
         sodipodi:nodetypes="ccccc"
         inkscape:connector-curvature="0"
         id="rect3790"
         d="M -86.603,996.3622 0,946.36218 86.603,996.3622 0,1046.3622 z"
         style="fill:#cccccc;fill-opacity:1" />
      <path
         sodipodi:nodetypes="ccccc"
         inkscape:connector-curvature="0"
         id="rect3790-9"
         d="m 6,1158.3622 2.3e-4,-100.0004 86.602771,-50.0004 -2.31e-4,100.0004 z"
         style="fill:#888888;fill-opacity:1" />
      <path
         sodipodi:nodetypes="ccccc"
         inkscape:connector-curvature="0"
         id="rect3790-4"
         d="m -6.0000021,1158.3622 -86.6027849,-50.0004 -2.13e-4,-100.0004 86.6027709,50.0004 z"
         style="fill:#880000;fill-opacity:1" />
    </g>
  </g>
</svg>
